<?xml version="1.0" encoding="UTF-8"?>
<svg width="21px" height="24px" viewBox="0 0 21 24" version="1.1" xmlns="http://www.w3.org/2000/svg" xmlns:xlink="http://www.w3.org/1999/xlink">
    <!-- Generator: Sketch 47.1 (45422) - http://www.bohemiancoding.com/sketch -->
    <title>Shape</title>
    <desc>Created with Sketch.</desc>
    <defs></defs>
    <g id="Page-1" stroke="none" stroke-width="1" fill="none" fill-rule="evenodd">
        <g id="Homepage" transform="translate(-154.000000, -488.000000)" fill-rule="nonzero" fill="#FFFFFF">
            <g id="noun_992974_cc" transform="translate(136.000000, 472.000000)">
                <path d="M37.9768687,29.1105677 C37.5639416,28.6976406 36.8945873,28.6976406 36.4816602,29.1105677 L29.1991276,36.3925715 L29.1991276,17.0574318 C29.1991276,16.4737294 28.7253982,16 28.1416959,16 C27.5579935,16 27.0842641,16.4737294 27.0842641,17.0574318 L27.0842641,36.3867557 L19.8049038,29.1084528 C19.3919767,28.6955257 18.7226224,28.6955257 18.3096953,29.1084528 C17.8967682,29.5213799 17.8967682,30.1907343 18.3096953,30.6036614 L27.3782301,39.6711387 C27.480801,39.778468 27.6050492,39.86412 27.7446302,39.9212213 C27.7552045,39.9254511 27.7657789,39.9275659 27.7768819,39.9312669 C27.8297535,39.9508294 27.8826251,39.968277 27.9391977,39.9799088 C27.9862534,39.9894257 28.0343665,39.9910118 28.081951,39.9936554 C28.1020422,39.9952416 28.1210759,40 28.1416959,40 C28.1422246,40 28.1427533,40 28.143282,40 C28.1438107,40 28.1443394,40 28.1448682,40 C28.2146586,40 28.2849779,39.9920693 28.3537109,39.9788514 C28.3611129,39.9772652 28.3674575,39.9740929 28.3748596,39.9725068 C28.5641398,39.9302095 28.7449607,39.8376842 28.8924724,39.6901725 L37.9768687,30.6057762 C38.3897958,30.1923204 38.3897958,29.5234948 37.9768687,29.1105677 Z" id="Shape"></path>
            </g>
        </g>
    </g>
</svg>