<?xml version="1.0" encoding="UTF-8"?>
<svg width="88px" height="88px" viewBox="0 0 88 88" version="1.1" xmlns="http://www.w3.org/2000/svg" xmlns:xlink="http://www.w3.org/1999/xlink">
    <!-- Generator: Sketch 47.1 (45422) - http://www.bohemiancoding.com/sketch -->
    <title>Logo</title>
    <desc>Created with Sketch.</desc>
    <defs></defs>
    <g id="Page-1" stroke="none" stroke-width="1" fill="none" fill-rule="evenodd">
        <g id="Homepage" transform="translate(-136.000000, -123.000000)">
            <g id="Logo" transform="translate(136.000000, 123.000000)">
                <circle id="Oval" fill="#4B018C" cx="44" cy="44" r="44"></circle>
                <g id="Icon-[flattened-rounded-corners]" transform="translate(16.000000, 19.000000)">
                    <path d="M25.4845956,46.921875 L30.5184979,46.921875 C31.4849962,46.921875 32.2684979,47.7053767 32.2684979,48.671875 C32.2684979,49.0047555 32.1735561,49.3307313 31.9948131,49.6115522 L29.6288192,53.328736 C29.307576,53.8334372 28.7507685,54.1390588 28.1525039,54.1390588 L27.8505895,54.1390588 C27.252325,54.1390588 26.6955174,53.8334372 26.3742743,53.328736 L24.0082804,49.6115522 C23.489311,48.7962058 23.729572,47.7145291 24.5449184,47.1955597 C24.8257393,47.0168167 25.1517151,46.921875 25.4845956,46.921875 Z" id="Code-Block-13" fill="#FC9F02"></path>
                    <path d="M37.8359189,37.8479266 L38.74642,37.8479266 C39.7129184,37.8479266 40.49642,38.6314283 40.49642,39.5979266 L40.49642,43.3151104 C40.49642,44.2816087 39.7129184,45.0651104 38.74642,45.0651104 L37.8359189,45.0651104 C36.8694205,45.0651104 36.0859189,44.2816087 36.0859189,43.3151104 L36.0859189,39.5979266 C36.0859189,38.6314283 36.8694205,37.8479266 37.8359189,37.8479266 Z" id="Code-Block-12" fill="#025CFF"></path>
                    <path d="M16.8526253,37.8479266 L32.197494,37.8479266 C33.1639923,37.8479266 33.947494,38.6314283 33.947494,39.5979266 L33.947494,43.3151104 C33.947494,44.2816087 33.1639923,45.0651104 32.197494,45.0651104 L16.8526253,45.0651104 C15.886127,45.0651104 15.1026253,44.2816087 15.1026253,43.3151104 L15.1026253,39.5979266 C15.1026253,38.6314283 15.886127,37.8479266 16.8526253,37.8479266 Z" id="Code-Block-11" fill="#E41F6D"></path>
                    <path d="M39.1724344,28.9661023 L45.4289976,28.9661023 C46.3954959,28.9661023 47.1789976,29.749604 47.1789976,30.7161023 L47.1789976,34.4332861 C47.1789976,35.3997844 46.3954959,36.1832861 45.4289976,36.1832861 L39.1724344,36.1832861 C38.2059361,36.1832861 37.4224344,35.3997844 37.4224344,34.4332861 L37.4224344,30.7161023 C37.4224344,29.749604 38.2059361,28.9661023 39.1724344,28.9661023 Z" id="Code-Block-10" fill="#DEDEDE"></path>
                    <path d="M21.9313842,28.9661023 L33.2667064,28.9661023 C34.2332048,28.9661023 35.0167064,29.749604 35.0167064,30.7161023 L35.0167064,34.4332861 C35.0167064,35.3997844 34.2332048,36.1832861 33.2667064,36.1832861 L21.9313842,36.1832861 C20.9648859,36.1832861 20.1813842,35.3997844 20.1813842,34.4332861 L20.1813842,30.7161023 C20.1813842,29.749604 20.9648859,28.9661023 21.9313842,28.9661023 Z" id="Code-Block-9" fill="#025CFF"></path>
                    <path d="M10.1700477,28.9661023 L16.426611,28.9661023 C17.3931093,28.9661023 18.176611,29.749604 18.176611,30.7161023 L18.176611,34.4332861 C18.176611,35.3997844 17.3931093,36.1832861 16.426611,36.1832861 L10.1700477,36.1832861 C9.20354942,36.1832861 8.42004773,35.3997844 8.42004773,34.4332861 L8.42004773,30.7161023 C8.42004773,29.749604 9.20354942,28.9661023 10.1700477,28.9661023 Z" id="Code-Block-8" fill="#FC9F02"></path>
                    <path d="M44.7857995,19.865528 L54.25,19.865528 C55.2164983,19.865528 56,20.6490297 56,21.615528 L56,25.3327118 C56,26.2992101 55.2164983,27.0827118 54.25,27.0827118 L44.7857995,27.0827118 C43.8193012,27.0827118 43.0357995,26.2992101 43.0357995,25.3327118 L43.0357995,21.615528 C43.0357995,20.6490297 43.8193012,19.865528 44.7857995,19.865528 Z" id="Code-Block-7" fill="#E41F6D"></path>
                    <path d="M30.7523866,19.865528 L39.1473747,19.865528 C40.113873,19.865528 40.8973747,20.6490297 40.8973747,21.615528 L40.8973747,25.3327118 C40.8973747,26.2992101 40.113873,27.0827118 39.1473747,27.0827118 L30.7523866,27.0827118 C29.7858883,27.0827118 29.0023866,26.2992101 29.0023866,25.3327118 L29.0023866,21.615528 C29.0023866,20.6490297 29.7858883,19.865528 30.7523866,19.865528 Z" id="Code-Block-6" fill="#025CFF"></path>
                    <path d="M1.75,19.865528 L25.1139618,19.865528 C26.0804601,19.865528 26.8639618,20.6490297 26.8639618,21.615528 L26.8639618,25.3327118 C26.8639618,26.2992101 26.0804601,27.0827118 25.1139618,27.0827118 L1.75,27.0827118 C0.783501688,27.0827118 1.18361906e-16,26.2992101 0,25.3327118 L0,21.615528 C-1.18361906e-16,20.6490297 0.783501688,19.865528 1.75,19.865528 Z" id="Code-Block-5" fill="#DEDEDE"></path>
                    <path d="M23.1342482,10.8868586 L51.8442721,10.8868586 C52.8107704,10.8868586 53.5942721,11.6703603 53.5942721,12.6368586 L53.5942721,16.3540424 C53.5942721,17.3205407 52.8107704,18.1040424 51.8442721,18.1040424 L23.1342482,18.1040424 C22.1677499,18.1040424 21.3842482,17.3205407 21.3842482,16.3540424 L21.3842482,12.6368586 C21.3842482,11.6703603 22.1677499,10.8868586 23.1342482,10.8868586 Z" id="Code-Block-4" fill="#FC9F02"></path>
                    <path d="M3.75477327,10.8868586 L17.4958234,10.8868586 C18.4623217,10.8868586 19.2458234,11.6703603 19.2458234,12.6368586 L19.2458234,16.3540424 C19.2458234,17.3205407 18.4623217,18.1040424 17.4958234,18.1040424 L3.75477327,18.1040424 C2.78827496,18.1040424 2.00477327,17.3205407 2.00477327,16.3540424 L2.00477327,12.6368586 C2.00477327,11.6703603 2.78827496,10.8868586 3.75477327,10.8868586 Z" id="Code-Block-3" fill="#E41F6D"></path>
                    <path d="M30.6187351,1.859375 L44.3597852,1.859375 C45.3262835,1.859375 46.1097852,2.64287669 46.1097852,3.609375 L46.1097852,7.32655877 C46.1097852,8.29305708 45.3262835,9.07655877 44.3597852,9.07655877 L30.6187351,9.07655877 C29.6522368,9.07655877 28.8687351,8.29305708 28.8687351,7.32655877 L28.8687351,3.609375 C28.8687351,2.64287669 29.6522368,1.859375 30.6187351,1.859375 Z" id="Code-Block-2" fill="#FC9F02"></path>
                    <path d="M11.2392601,1.859375 L24.9803103,1.859375 C25.9468086,1.859375 26.7303103,2.64287669 26.7303103,3.609375 L26.7303103,7.32655877 C26.7303103,8.29305708 25.9468086,9.07655877 24.9803103,9.07655877 L11.2392601,9.07655877 C10.2727618,9.07655877 9.48926014,8.29305708 9.48926014,7.32655877 L9.48926014,3.609375 C9.48926014,2.64287669 10.2727618,1.859375 11.2392601,1.859375 Z" id="Code-Block-1" fill="#025CFF"></path>
                </g>
            </g>
        </g>
    </g>
</svg>